<?xml version="1.0" encoding="UTF-8"?>
<svg version="1.1" xmlns="http://www.w3.org/2000/svg" width="2000" height="757">
<path d="M0 0 C1.59663732 -0.00258622 3.19327399 -0.0056001 4.78990978 -0.0090034 C9.16668968 -0.01704644 13.54345315 -0.01886147 17.92023957 -0.01960087 C22.64504249 -0.02145613 27.36983698 -0.02900583 32.09463501 -0.03573608 C42.42128421 -0.04930075 52.74792952 -0.05534121 63.07458615 -0.05974674 C69.52655129 -0.06251231 75.97851493 -0.06675024 82.43047905 -0.07125092 C100.30549939 -0.08344112 118.18051854 -0.09374094 136.05554295 -0.09712601 C137.7706111 -0.09745536 137.7706111 -0.09745536 139.52032709 -0.09779136 C140.66639022 -0.09800964 141.81245335 -0.09822791 142.99324566 -0.09845281 C145.315479 -0.09889627 147.63771234 -0.09934283 149.95994568 -0.09979248 C151.11184554 -0.10001391 152.2637454 -0.10023534 153.45055132 -0.10046348 C172.10878918 -0.10441017 190.76698796 -0.12186137 209.42521072 -0.145152 C228.59619835 -0.16888891 247.76716639 -0.18132892 266.93816894 -0.18249393 C277.69595878 -0.18340937 288.45369769 -0.18912871 299.21147346 -0.20731354 C308.37312909 -0.2227461 317.53471804 -0.22781638 326.6963842 -0.21957543 C331.36658785 -0.21568011 336.03665735 -0.21654368 340.70684433 -0.23063278 C344.99111713 -0.24343889 349.27515589 -0.24211585 353.55942868 -0.23004207 C355.1004983 -0.22809662 356.64158488 -0.23110951 358.18263073 -0.23988643 C382.84388249 -0.37132954 403.9480776 6.56581391 421.78392029 24.01544189 C439.82328858 42.39786344 444.56522667 65.11590067 444.54936218 89.94584656 C444.55194833 91.56580728 444.55496219 93.18576737 444.55836558 94.80572659 C444.56640965 99.24705465 444.56822371 103.68836653 444.56896305 108.12970102 C444.57081816 112.92407243 444.57836785 117.71843554 444.58509827 122.51280212 C444.59866425 132.99247332 444.60470376 143.47214067 444.60910892 153.95181918 C444.6118746 160.50028549 444.61611258 167.04875033 444.6206131 173.59721565 C444.6328041 191.74159242 444.64310336 209.88596801 444.64648819 228.03034878 C444.64670776 229.19103009 444.64692732 230.3517114 444.64715354 231.54756487 C444.64737182 232.71096677 444.6475901 233.87436867 444.64781499 235.07302517 C444.64825845 237.43037697 444.64870501 239.78772877 444.64915466 242.14508057 C444.64937609 243.3143995 444.64959752 244.48371843 444.64982566 245.68847127 C444.65377125 264.62341838 444.67121876 283.55832695 444.69451419 302.49325918 C444.71825913 321.9512796 444.73069149 341.4092807 444.73185611 360.86731583 C444.73277116 371.78501839 444.73848064 382.70267074 444.75667572 393.62035942 C444.77211925 402.91956532 444.7771722 412.2187055 444.76893762 421.5179218 C444.76504598 426.25723159 444.76588756 430.99640921 444.77999496 435.73570251 C444.79282368 440.08546031 444.79145862 444.43498782 444.77940425 448.7847457 C444.77746264 450.34738505 444.78045342 451.91004122 444.78924862 453.47265702 C444.93153658 480.49176305 437.31066069 502.83514398 418.27490711 522.53172398 C416.78485732 524.03514725 415.28953194 525.53335516 413.78973389 527.02705383 C412.95902616 527.86229267 412.12831844 528.69753151 411.27243775 529.55808061 C408.99326253 531.84763647 406.70974955 534.13275416 404.42419302 536.41593659 C401.9494687 538.89024938 399.48049856 541.37029368 397.01071167 543.84953308 C392.18176895 548.69501301 387.34735431 553.53499663 382.51069579 558.37277371 C378.57603001 562.30839322 374.64295456 566.24559508 370.71097374 570.18389702 C359.53980692 581.37265458 348.36447992 592.55723284 337.18376277 603.73644704 C336.28165007 604.63843988 336.28165007 604.63843988 335.36131287 605.55865479 C334.7591615 606.16072439 334.15701013 606.76279399 333.53661176 607.38310813 C323.77973722 617.13916988 314.03287856 626.90517031 304.29051933 636.67572505 C294.26441106 646.7306187 284.23080483 656.77797681 274.18943089 666.81762594 C268.56116611 672.44522889 262.93597365 678.07582316 257.31885719 683.71455574 C252.53676478 688.5149343 247.74769423 693.30821696 242.94969521 698.09269888 C240.50656182 700.52934062 238.06663989 702.96896837 235.63550949 705.41759109 C212.74880637 728.43868469 212.74880637 728.43868469 197.53392029 735.01544189 C195.74341248 735.81594971 195.74341248 735.81594971 193.91673279 736.63262939 C182.54284515 740.8226441 170.84590833 741.58248624 158.84249878 741.52139282 C157.33397509 741.52485916 155.82545394 741.52963021 154.31693798 741.53557456 C150.21621181 741.5479802 146.11569783 741.54196239 142.01497138 741.5326159 C137.57523906 741.52578253 133.13554132 741.53632769 128.69581604 741.54455566 C120.01626357 741.55784942 111.33678922 741.55503486 102.65723377 741.54631774 C95.59963885 741.53952482 88.54206572 741.53863141 81.48446846 741.54188919 C79.97406989 741.54257874 79.97406989 741.54257874 78.43315821 741.54328222 C76.38719645 741.54424145 74.3412347 741.5452141 72.29527295 741.54619999 C53.14035821 741.55474101 33.98548665 741.54493978 14.83057899 741.52879889 C-1.58432819 741.51539485 -17.99917172 741.51772703 -34.41407776 741.53155518 C-53.50501821 741.54763026 -72.5959209 741.5539193 -91.68686718 741.54471838 C-93.724726 741.5437628 -95.76258482 741.54281968 -97.80044365 741.54188919 C-99.30420184 741.54119495 -99.30420184 741.54119495 -100.83833899 741.54048669 C-107.88317726 741.53790273 -114.92799146 741.54225489 -121.972826 741.54932785 C-130.56415857 741.55776441 -139.15540896 741.55541743 -147.74673218 741.53948562 C-152.12521792 741.53163216 -156.50356692 741.52846109 -160.88205147 741.53843307 C-164.89831528 741.5474414 -168.91431698 741.54234733 -172.93055736 741.52650042 C-174.37516423 741.52317841 -175.81979373 741.52478774 -177.26438577 741.53212778 C-201.33107806 741.6449306 -221.4046465 734.01997451 -238.59107971 717.14044189 C-239.36451721 716.39149658 -240.13795471 715.64255127 -240.93482971 714.87091064 C-257.63281728 697.62966664 -261.93092133 674.53470133 -261.845047 651.26425171 C-261.84735842 649.92713498 -261.85053947 648.59001953 -261.85450149 647.25290668 C-261.86276481 643.62128205 -261.85876326 639.98976403 -261.85252905 636.35813928 C-261.84797038 632.4248386 -261.85500517 628.4915552 -261.86048889 624.55825806 C-261.86934886 616.86919104 -261.86747594 609.18016323 -261.86166361 601.49109472 C-261.85713304 595.23679544 -261.85654023 588.98250709 -261.85871124 582.72820663 C-261.85901771 581.83550602 -261.85932417 580.9428054 -261.85963993 580.02305325 C-261.86027943 578.20909843 -261.86092786 576.3951436 -261.86158511 574.58118878 C-261.86727863 557.59942763 -261.86074624 540.61768812 -261.84998438 523.63593052 C-261.84105284 509.09266436 -261.84259954 494.54943014 -261.8518219 480.00616455 C-261.86254716 463.08515456 -261.86672617 446.16416351 -261.86059737 429.24315059 C-261.85996033 427.43553663 -261.85933159 425.62792266 -261.85871124 423.82030869 C-261.85840269 422.93111818 -261.85809414 422.04192768 -261.85777624 421.125792 C-261.85605583 414.88641939 -261.8589503 408.64705888 -261.86367035 402.40768814 C-261.86930445 394.79319908 -261.86771003 387.17875121 -261.85710886 379.56426682 C-261.85188551 375.685804 -261.84973777 371.80740962 -261.85640717 367.92894745 C-261.92022866 327.27003221 -252.35781384 303.92924899 -229.89851379 270.56507874 C-224.33984341 262.29664943 -218.87261314 253.96830756 -213.40357971 245.64044189 C-212.34373506 244.02761529 -211.28383892 242.41482253 -210.22389221 240.80206299 C-208.08109654 237.54140772 -205.9387414 234.28046357 -203.79664612 231.01934814 C-199.08439523 223.84620542 -194.36628951 216.67691502 -189.64854431 209.50738525 C-187.04580867 205.55190026 -184.44346427 201.59615788 -181.84107971 197.64044189 C-180.79941491 196.05710733 -179.75774825 194.473774 -178.71607971 192.89044189 C-177.94264221 191.71481689 -177.94264221 191.71481689 -177.15357971 190.51544189 C-147.46607971 145.3904419 -147.46607971 145.3904419 -145.90353394 143.01538086 C-144.86200939 141.43225786 -143.82049531 139.84912798 -142.7789917 138.26599121 C-140.17273631 134.30438323 -137.56629851 130.3428955 -134.95948792 126.38165283 C-129.78448403 118.51742659 -124.61242891 110.6512896 -119.44654846 102.78106689 C-114.2831859 94.91553197 -109.10918037 87.05706812 -103.92848206 79.20294189 C-101.58709485 75.65293629 -99.24950523 72.10046041 -96.91383362 68.54669189 C-93.76217319 63.75279424 -90.60139263 58.96501383 -87.4349823 54.18084717 C-86.2222545 52.34560811 -85.01235236 50.50849817 -83.80552673 48.66937256 C-77.61699998 39.2428564 -71.5837941 30.15469722 -63.59107971 22.14044189 C-62.89603333 21.42630127 -62.20098694 20.71216064 -61.48487854 19.97637939 C-45.03243811 3.48364034 -22.19080453 -0.01438953 0 0 Z " fill="#A695FE" transform="translate(280.59107971191406,5.85955810546875)"/>
<path d="M0 0 C0.84923035 0.00054382 1.69846069 0.00108765 2.57342529 0.00164795 C16.67902114 0.04297843 30.18617364 1.02453872 43.9375 4.375 C44.85112305 4.59462402 45.76474609 4.81424805 46.70605469 5.04052734 C74.59595824 11.94701766 98.59800932 24.30552277 113.9375 49.375 C116.77611639 54.28684067 119.39521343 59.30462959 121.9375 64.375 C126.58936378 63.53180312 128.70158059 60.68487287 131.6875 57.25 C136.18094213 52.24441521 140.67487666 47.58700888 145.9375 43.375 C146.84371094 42.63121094 147.74992187 41.88742187 148.68359375 41.12109375 C186.62456476 10.56057099 234.22145218 -3.5928221 282.6875 0.83984375 C316.5273634 4.57895633 349.80995637 18.77293093 371.9375 45.375 C385.73641074 63.12768711 391.54208932 84.62960019 392.48046875 106.78515625 C392.52164322 107.75407303 392.56281769 108.72298981 392.60523987 109.7212677 C393.19524568 125.33857069 393.20037936 140.97450229 393.32565308 156.60076904 C393.61167009 191.82172167 394.1072546 227.03623891 394.875 262.25 C394.90667959 263.70990294 394.90667959 263.70990294 394.93899918 265.19929886 C395.42860311 287.6437002 396.00533104 310.07400643 397.0625 332.5 C397.64326177 344.8552272 398.17849492 357.20042092 398.28997803 369.57049561 C398.30463054 371.02911523 398.32565342 372.48768946 398.35406494 373.94610596 C398.63506712 389.42437278 398.63506712 389.42437278 393.9375 394.375 C388.81181628 397.81148873 385.0152663 398.95980741 378.80249023 398.87670898 C378.02106659 398.88211197 377.23964294 398.88751495 376.43453979 398.89308167 C373.87133 398.90551076 371.30925623 398.88911913 368.74609375 398.87109375 C366.95443157 398.87124886 365.16276906 398.8727398 363.37110901 398.87550354 C359.62461429 398.87688487 355.87850365 398.86437298 352.13208008 398.84155273 C347.3381465 398.81314831 342.54484964 398.81591455 337.7508688 398.82864285 C334.05416965 398.8356083 330.35761682 398.8278012 326.66093636 398.81538582 C324.89356104 398.81088119 323.12616996 398.81052586 321.35879326 398.81445122 C318.88657465 398.81737251 316.41522394 398.80081409 313.94311523 398.77905273 C313.21827438 398.78355438 312.49343353 398.78805603 311.74662781 398.79269409 C307.05897505 398.72438313 303.76782361 398.12586703 299.9375 395.375 C296.57861222 390.31506435 295.22372544 385.24738973 294.71592712 379.27101135 C294.640995 378.4990516 294.56606287 377.72709186 294.48886007 376.93173939 C293.60757642 366.98680557 293.56239548 357.01546094 293.48266602 347.03881836 C293.45849128 344.85686853 293.43348309 342.67492781 293.40771484 340.49299622 C293.3542059 335.83122874 293.30606982 331.16944924 293.2621479 326.50758171 C293.19208831 319.12085139 293.10709379 311.73433716 293.01976013 304.34779358 C292.78951847 284.68112216 292.57893934 265.01424873 292.37662119 245.3472715 C292.24332689 232.39998757 292.10192002 219.45284758 291.94552368 206.50582033 C291.85766363 199.17802733 291.78251579 191.8502532 291.71720707 184.52222621 C291.67352688 179.94885321 291.61805388 175.37567675 291.55944061 170.80247307 C291.53480815 168.69881291 291.51489533 166.59509074 291.50032616 164.49133682 C291.34713569 143.11613933 289.97165789 122.06791787 274.9375 105.375 C263.01894392 94.88042852 248.71654443 91.9766922 233.25 92.0625 C231.67061646 92.06987183 231.67061646 92.06987183 230.05932617 92.07739258 C204.43444096 92.46049866 183.6801581 103.0905854 165.375 120.625 C155.60500554 130.70847022 148.34622544 141.94743355 141.9375 154.375 C141.45603516 155.30699219 141.45603516 155.30699219 140.96484375 156.2578125 C123.63595099 190.3355514 122.59960817 226.05936816 122.83350682 263.51566172 C122.85757382 267.86090901 122.86722303 272.20618562 122.87779236 276.55148315 C122.91152238 289.40743551 122.96478687 302.26329546 123.0269165 315.11914062 C123.07541412 325.17253525 123.11744337 335.22585543 123.13842481 345.27935016 C123.14990866 350.43272464 123.17523837 355.58578328 123.21117222 360.73904252 C123.23037322 363.93402118 123.23704527 367.12893602 123.24023628 370.32396698 C123.24424961 371.80181863 123.2534251 373.27966686 123.26819992 374.7574501 C123.28766579 376.77710748 123.28671759 378.79693063 123.2848053 380.81668091 C123.29016831 381.94512484 123.29553133 383.07356876 123.30105686 384.23620796 C122.73469322 389.12594569 121.03328858 392.36139556 117.4375 395.6875 C113.12070376 398.60133746 109.27997412 398.52851554 104.2565918 398.53613281 C103.47575226 398.54109772 102.69491272 398.54606262 101.89041138 398.55117798 C99.30583821 398.56578895 96.72132644 398.57260007 94.13671875 398.578125 C92.33934019 398.58387764 90.54196165 398.58963536 88.74458313 398.59539795 C84.97433181 398.60590512 81.20410179 398.61174954 77.43383789 398.61523438 C72.60847405 398.62071636 67.78339277 398.64473922 62.95811749 398.67320633 C59.24430017 398.69185333 55.53055061 398.69703942 51.81669044 398.69857025 C50.03812936 398.70159301 48.25956937 398.70960881 46.48105431 398.72275543 C43.98934979 398.73985805 41.4983316 398.73792549 39.0065918 398.73144531 C38.27546677 398.7406601 37.54434174 398.74987488 36.7910614 398.7593689 C32.1004646 398.72125918 28.92302329 397.84155634 24.9375 395.375 C21.38244422 391.53169645 19.80926543 388.57551186 19.8200388 383.34923267 C19.81928114 382.52756196 19.81852349 381.70589124 19.81774288 380.85932142 C19.82415851 379.50556796 19.82415851 379.50556796 19.83070374 378.12446594 C19.83126044 377.16538981 19.83181715 376.20631368 19.83239073 375.21817464 C19.83543778 371.98958138 19.84562861 368.76104909 19.85571289 365.5324707 C19.85926771 363.22304346 19.86235405 360.91361546 19.86500549 358.60418701 C19.87156786 353.62125565 19.88113526 348.63834206 19.89290047 343.6554203 C19.91117553 335.7662304 19.9207888 327.87704486 19.92881775 319.98783875 C19.94061726 308.91530941 19.95471849 297.84278598 19.97192383 286.77026367 C19.97301395 286.06738144 19.97410407 285.36449921 19.97522723 284.64031752 C19.9907991 274.69106074 20.00938619 264.74181189 20.0292251 254.79256281 C20.03061842 254.09362206 20.03201173 253.39468131 20.03344727 252.67456055 C20.0348408 251.97647722 20.03623433 251.27839389 20.03767008 250.55915651 C20.06078296 238.87918087 20.07605025 227.1992103 20.08500665 215.51921529 C20.09152461 207.68843292 20.10703327 199.85773735 20.12932408 192.02698481 C20.14112323 187.13364896 20.14442555 182.24033371 20.14542198 177.34698486 C20.14755489 175.09127893 20.15309567 172.83557301 20.1624527 170.57988548 C20.25262057 147.95077874 19.86321522 123.96039078 3.83984375 106.02734375 C-9.84891438 93.1111434 -26.27826445 91.69115388 -44.2421875 92.09375 C-69.10564317 93.05403796 -89.57444889 104.16026744 -107.0546875 121.33203125 C-108.82915818 123.28055289 -110.45024535 125.28958366 -112.0625 127.375 C-112.46146484 127.87950684 -112.86042969 128.38401367 -113.27148438 128.90380859 C-136.98987002 159.07117136 -147.51417766 196.27788825 -148.61157227 234.24243164 C-148.65204713 235.54952371 -148.69252199 236.85661577 -148.73422337 238.20331669 C-149.11267661 250.75576773 -149.31547396 263.31057641 -149.47749138 275.86752129 C-149.52910588 279.81848017 -149.58536043 283.76935882 -149.64320374 287.7202301 C-149.80661964 298.92675549 -149.96575918 310.13332493 -150.11206055 321.34008789 C-150.19371483 327.59107309 -150.28182864 333.84193367 -150.37692744 340.09272915 C-150.42652101 343.37075193 -150.47191789 346.64874399 -150.5112133 349.92690849 C-150.95274942 386.53208633 -150.95274942 386.53208633 -156.55078125 394.95703125 C-160.63496145 398.78792896 -165.67159143 398.66764091 -170.97045898 398.6496582 C-172.14215637 398.6573246 -172.14215637 398.6573246 -173.33752441 398.66514587 C-175.91129284 398.67900889 -178.4847925 398.67808765 -181.05859375 398.67578125 C-182.85311482 398.67966989 -184.64763497 398.68400491 -186.44215393 398.68876648 C-190.20048 398.69622153 -193.95871212 398.69594252 -197.71704102 398.69067383 C-202.52667921 398.68487908 -207.33593232 398.70181373 -212.14550686 398.7250185 C-215.85075621 398.73976951 -219.55591309 398.7406257 -223.2611866 398.73750877 C-225.03415757 398.73802126 -226.80713381 398.74324541 -228.58007622 398.75332069 C-231.06201897 398.76569489 -233.54321516 398.75888794 -236.02514648 398.74731445 C-236.75312943 398.75495819 -237.48111237 398.76260193 -238.2311554 398.77047729 C-242.90981354 398.72239778 -246.0859577 397.83265788 -250.0625 395.375 C-254.69866761 390.36292691 -255.21965387 386.41943538 -255.23046875 379.8203125 C-255.23456757 379.0369603 -255.23866638 378.25360809 -255.2428894 377.44651794 C-255.25266381 374.79763669 -255.2523705 372.14889719 -255.25 369.5 C-255.25039276 368.57307343 -255.25078552 367.64614685 -255.25119019 366.69113159 C-255.23919554 342.51834786 -254.2853618 318.37400832 -253.43371582 294.21958923 C-251.56973541 240.90582663 -250.91208857 187.50439884 -251.06372237 134.15945554 C-251.07030478 131.83085745 -251.07627103 129.50225849 -251.08208656 127.17365837 C-251.11787007 113.10008532 -251.16508916 99.02657657 -251.23388672 84.953125 C-251.2684607 77.85930644 -251.29220442 70.76553484 -251.30409515 63.67164111 C-251.31206898 59.2669905 -251.33295567 54.86267349 -251.36430001 50.45813036 C-251.38413405 47.11694555 -251.3841433 43.77581146 -251.38720703 40.43457031 C-251.3995639 39.25269135 -251.41192078 38.07081238 -251.4246521 36.8531189 C-251.40493977 28.70429386 -250.89076488 20.94754511 -245.6875 14.375 C-240.96973475 10.78051219 -237.13660168 10.12298451 -231.25610352 10.1003418 C-230.59201477 10.09523087 -229.92792603 10.09011993 -229.24371338 10.08485413 C-227.05951803 10.07101164 -224.87564011 10.07191076 -222.69140625 10.07421875 C-221.16592798 10.07032895 -219.64045078 10.0659937 -218.11497498 10.06123352 C-214.92158493 10.05378288 -211.72830547 10.05405423 -208.53491211 10.05932617 C-204.45165718 10.06512019 -200.36885595 10.04818619 -196.285676 10.0249815 C-193.13630039 10.01021825 -189.98703341 10.00937595 -186.83762932 10.01249123 C-185.33260131 10.01197934 -183.827567 10.00676663 -182.32257271 9.99667931 C-180.2141826 9.98428094 -178.10666811 9.99112576 -175.99829102 10.00268555 C-174.80091812 10.00205612 -173.60354523 10.0014267 -172.36988831 10.0007782 C-167.63148361 10.53691553 -164.33015247 12.17978481 -160.875 15.4375 C-155.51916648 24.11764399 -155.09168753 34.70874461 -154 44.625 C-153.75986723 46.77918195 -153.51693696 48.93289587 -153.26625061 51.08587646 C-153.04042091 53.02815324 -152.8244711 54.97157137 -152.60913086 56.91503906 C-152.08166949 60.25366458 -151.22998703 63.20952985 -150.0625 66.375 C-147.1512591 66.04358642 -146.15417803 65.47351691 -144.125 63.29296875 C-143.444375 62.39191406 -142.76375 61.49085938 -142.0625 60.5625 C-117.68782622 29.82575803 -83.19498665 12.35781559 -45.375 4.125 C-44.34548218 3.89828613 -44.34548218 3.89828613 -43.29516602 3.66699219 C-28.96966668 0.74281469 -14.58071744 -0.03547445 0 0 Z " fill="#000000" transform="translate(1579.0625,348.625)"/>
<path d="M0 0 C1.27783539 -0.00322445 2.55567077 -0.00644889 3.87222844 -0.00977105 C5.28291541 -0.00830004 6.69360229 -0.00673233 8.10428905 -0.00507832 C9.60860587 -0.00694709 11.11292219 -0.00924807 12.61723775 -0.01194364 C16.74788612 -0.01805976 20.87851425 -0.01792826 25.00916612 -0.01674926 C29.46531033 -0.01654521 33.92144804 -0.02206445 38.37758923 -0.02680683 C47.10680571 -0.03511288 55.83601543 -0.03786165 64.56523553 -0.03841921 C71.66074527 -0.03889438 78.75625278 -0.04094921 85.85176182 -0.04411983 C105.96892096 -0.05292623 126.08607476 -0.05753923 146.20323584 -0.05678936 C147.2877323 -0.0567494 148.37222875 -0.05670945 149.48958874 -0.05666828 C150.57540933 -0.0566274 151.66122991 -0.05658652 152.77995416 -0.0565444 C170.37862009 -0.05613792 187.97726463 -0.06570803 205.57592437 -0.07980665 C223.64618761 -0.09416885 241.7164404 -0.10107692 259.78670949 -0.10021287 C269.93175611 -0.09988085 280.0767803 -0.10263016 290.22182178 -0.11339092 C298.8592422 -0.12249385 307.49663002 -0.12467287 316.13405315 -0.1178815 C320.54018741 -0.11461528 324.94625911 -0.11456334 329.35238743 -0.12323475 C333.38842966 -0.13109607 337.42435969 -0.12967206 341.46039917 -0.12095062 C342.91797512 -0.11941483 344.37555942 -0.12123478 345.83312551 -0.12681069 C363.4845844 -0.18984669 363.4845844 -0.18984669 370.46151257 3.75363445 C376.82336271 10.86393756 376.00012015 19.73049048 375.91463757 28.70675945 C375.91157188 30.123892 375.90970193 31.54102759 375.9089613 32.95816326 C375.9043773 35.92021623 375.89003311 38.88199447 375.86776257 41.84396648 C375.83958626 45.60692202 375.82855818 49.36966134 375.82408047 53.13271236 C375.81887624 56.7615882 375.80437644 60.39041214 375.78963757 64.01925945 C375.78775684 64.69490192 375.78587612 65.3705444 375.78393841 66.06666088 C375.68377602 93.93277375 375.68377602 93.93277375 370.12557507 99.6247282 C366.01456673 103.16420611 363.66447018 104.2518479 358.34823132 104.28012371 C356.6824403 104.2926392 356.6824403 104.2926392 354.98299694 104.30540752 C353.14704967 104.31168415 353.14704967 104.31168415 351.27401257 104.31808758 C349.30226165 104.33081758 347.33051073 104.34354784 345.35875988 104.35628796 C343.23595231 104.36904593 341.1131451 104.37936119 338.99032116 104.38899517 C334.5705236 104.4091894 330.15079235 104.43684502 325.73104382 104.46567059 C315.55106647 104.5309161 305.37103987 104.58631323 295.19100475 104.64165783 C285.86254172 104.69247364 276.53410271 104.74534355 267.20569897 104.80618334 C262.80905945 104.83457337 258.41242785 104.85815461 254.0157423 104.87810802 C251.94100953 104.88825933 249.86630479 104.90064471 247.79159069 104.9140501 C245.25775799 104.93040901 242.7238989 104.94319874 240.19002819 104.95186138 C238.52423717 104.96437687 238.52423717 104.96437687 236.82479382 104.9771452 C235.85582165 104.98229893 234.88684948 104.98745266 233.88851452 104.99276257 C231.55824146 104.97871324 231.55824146 104.97871324 229.58651257 106.12863445 C228.36757991 109.78543242 228.454317 113.13420873 228.47184467 116.94053459 C228.47158962 117.74864197 228.47133456 118.55674936 228.47107178 119.38934484 C228.47143497 122.12035328 228.47899066 124.85129587 228.48644543 127.58229351 C228.48815629 129.55083538 228.48941918 131.51937768 228.4902705 133.48792011 C228.49386996 138.9156614 228.50368319 144.34337682 228.51442409 149.77110803 C228.52488119 155.61788493 228.52953314 161.4646665 228.53475475 167.31145 C228.54447919 177.4492896 228.55752533 187.58712051 228.57247829 197.72495365 C228.59482809 213.06703508 228.60791905 228.40911887 228.61873079 243.75121225 C228.62310068 249.90597237 228.62773711 256.0607323 228.6323328 262.21549225 C228.63284133 262.89933084 228.63334986 263.58316944 228.6338738 264.28773042 C228.64601181 280.57153283 228.66037562 296.85533296 228.67586803 313.1391325 C228.6765432 313.85177258 228.67721836 314.56441265 228.67791398 315.29864788 C228.69370345 331.9229501 228.71162477 348.54724771 228.73421764 365.17154217 C228.73518892 365.88635129 228.73616019 366.60116041 228.73716089 367.33763041 C228.74500743 373.0992005 228.75292952 378.86077049 228.76087115 384.62234045 C228.79355213 408.37503849 228.81616324 432.12772822 228.82716553 455.88044655 C228.83430479 471.1846587 228.85073992 486.48880027 228.88090847 501.79298393 C228.89988262 511.81810066 228.90799432 521.84318868 228.9075035 531.86832323 C228.90756663 537.65556788 228.91257965 543.44269973 228.93067074 549.22991848 C228.94713218 554.52679879 228.94978978 559.82349909 228.94142197 565.12039671 C228.94084739 567.03766979 228.94537203 568.95495252 228.95548333 570.87219902 C228.96848701 573.47753045 228.96296593 576.08219894 228.95286274 578.68752861 C228.96102963 579.43253208 228.96919652 580.17753555 228.97761089 580.94511488 C228.92848647 586.2651879 227.77827846 590.26461739 225.58651257 595.12863445 C220.50046813 600.08752777 216.0691853 600.28028829 209.26302624 600.28976727 C208.41391171 600.29473217 207.56479717 600.29969707 206.6899519 600.30481243 C203.87812015 600.31942898 201.06634483 600.32623539 198.25448132 600.33175945 C196.30016103 600.33751154 194.34584076 600.34326927 192.3915205 600.3490324 C188.29172026 600.3595411 184.19193962 600.36538455 180.0921278 600.36886883 C174.84303488 600.37435176 169.59420158 600.3983761 164.34519005 600.42684078 C160.3071114 600.44548044 156.2690951 600.45067348 152.23097706 600.4522047 C150.29611638 600.45522901 148.36125675 600.46325003 146.42643833 600.47638988 C143.71681984 600.49347726 141.00783325 600.49156352 138.29818249 600.48507977 C137.10331219 600.49890194 137.10331219 600.49890194 135.88430309 600.51300335 C131.06104759 600.47691662 127.76031055 599.80177378 123.58651257 597.12863445 C119.21483057 591.45726321 118.44002503 587.22271763 118.47184467 580.25312233 C118.47158962 579.43815225 118.47133456 578.62318217 118.47107178 577.78351602 C118.47143498 575.02922169 118.47899073 572.27499265 118.48644543 569.52070904 C118.48815627 567.53551661 118.48941917 565.55032375 118.4902705 563.56513077 C118.49386995 558.09160117 118.50368308 552.61809722 118.51442409 547.14457762 C118.52488081 541.24883524 118.52953295 535.35308822 118.53475475 529.45733929 C118.54447844 519.23599983 118.55752396 509.01466898 118.57247829 498.79333591 C118.59493744 483.33197437 118.60791632 467.87061247 118.61873079 452.40923895 C118.62310061 446.20832059 118.62773698 440.00740242 118.6323328 433.80648422 C118.63309559 432.7730716 118.63309559 432.7730716 118.6338738 431.71878195 C118.64601093 415.31478903 118.66037593 398.91079836 118.67586803 382.50680828 C118.6765432 381.78889912 118.67721836 381.07098996 118.67791398 380.33132598 C118.69371129 363.5756884 118.7116403 346.82005538 118.73421764 330.06442547 C118.73518892 329.34346903 118.73616019 328.62251259 118.73716089 327.87970898 C118.74500778 322.06823961 118.75292973 316.25677033 118.76087115 310.44530108 C118.79352276 286.50791272 118.81615255 262.57053257 118.82716553 238.63312412 C118.82873038 235.2557889 118.83042478 231.87845377 118.83220577 228.50111866 C118.83255454 227.83639763 118.83290331 227.17167659 118.83326265 226.4868125 C118.83884255 216.43373535 118.8534914 206.38069647 118.87313747 196.32763767 C118.89544626 184.90156031 118.90805985 173.47552822 118.9075035 162.04942804 C118.90756679 156.21432091 118.91264408 150.37932543 118.93067074 144.54424381 C118.94705237 139.21066931 118.9498278 133.87727365 118.94142197 128.54368223 C118.94084423 126.60632765 118.94542871 124.66896383 118.95548333 122.73163527 C118.96834958 120.11363331 118.96303825 117.49630368 118.95286274 114.87830544 C118.96511307 113.72993755 118.96511307 113.72993755 118.97761089 112.55837032 C118.99155711 110.24744882 118.99155711 110.24744882 118.58651257 107.12863445 C115.28926606 104.93047012 114.31179119 104.87716133 110.48267651 104.87034893 C109.42704006 104.86352093 108.37140362 104.85669292 107.28377819 104.84965801 C106.12579723 104.85221096 104.96781628 104.85476391 103.77474499 104.85739422 C102.55499477 104.85216747 101.33524456 104.84694073 100.07853222 104.8415556 C97.42494239 104.83129942 94.7716114 104.824596 92.11802769 104.8236742 C87.91964869 104.82173351 83.72143476 104.80367955 79.5231123 104.78291607 C69.09293681 104.73372319 58.66271639 104.70286252 48.23244762 104.68161297 C40.1306148 104.66508011 32.02892319 104.64223139 23.92718488 104.59859222 C19.75653423 104.57684176 15.58615199 104.56875562 11.41544855 104.57098496 C8.20572904 104.56892223 4.99612559 104.54755518 1.78646374 104.52926922 C0.05860134 104.53613499 0.05860134 104.53613499 -1.70416737 104.54313946 C-8.65074873 104.48015696 -13.47914641 103.981466 -18.66348743 98.94113445 C-22.12124809 93.38401911 -22.75248902 86.93710133 -23.03848743 80.50363445 C-23.07570911 79.73076092 -23.11293079 78.95788738 -23.1512804 78.16159344 C-23.78016194 62.50186352 -23.58414646 46.79641022 -23.41348743 31.12863445 C-23.40091908 29.95172039 -23.38835072 28.77480633 -23.3754015 27.5622282 C-23.33216102 24.77012856 -23.25903237 21.98186566 -23.16348743 19.19113445 C-23.14946888 18.44291424 -23.13545033 17.69469402 -23.12100697 16.92380047 C-22.86875255 11.59696524 -21.36620963 8.4387436 -18.41348743 4.12863445 C-12.66449353 0.3792906 -6.72032558 0.00429725 0 0 Z " fill="#000000" transform="translate(891.4134874343872,146.87136554718018)"/>
<path d="M0 0 C79.86 0 159.72 0 242 0 C242 37.62 242 75.24 242 114 C226.16 114 210.32 114 194 114 C194 165.81 194 217.62 194 271 C145.82 271 97.64 271 48 271 C48 219.19 48 167.38 48 114 C32.16 114 16.32 114 0 114 C0 76.38 0 38.76 0 0 Z " fill="#FEFEFF" transform="translate(339,96)"/>
</svg>
